<svg xmlns="http://www.w3.org/2000/svg" viewBox="0 0 32 32" width="32" height="32">
  <title>Bruno Galiz</title>
  <!-- Fundo tinta, sem raio: a mesma linguagem do site. -->
  <rect width="32" height="32" fill="#0B0A08"/>
  <!-- Retícula a 45°: papel milimetrado, a mesma ideia dos fios do site. -->
  <g stroke="#2A2620" stroke-width="1">
    <path d="M-6 10L10 -6M-6 22L22 -6M-6 34L34 -6M10 34L34 10M22 34L34 22"/>
  </g>
  <!-- Monograma: legível a 16px porque é uma forma só, não duas letras. -->
  <path d="M9 7h7.6c3.3 0 5.4 1.8 5.4 4.6 0 1.9-1 3.3-2.6 4 2 .6 3.3 2.2 3.3 4.4 0 3-2.3 5-5.9 5H9V7zm3.4 3v4.2h3.8c1.4 0 2.2-.8 2.2-2.1 0-1.3-.8-2.1-2.2-2.1h-3.8zm0 7.1V22h4.2c1.5 0 2.4-.9 2.4-2.4s-.9-2.4-2.4-2.4h-4.2z"
        fill="#E89B45"/>
  <!-- Régua âmbar inferior — o fio que atravessa o site inteiro. -->
  <rect x="9" y="26" width="14" height="1.5" fill="#E89B45"/>
</svg>
